<svg width="1000" height="134" viewBox="0 0 1000 134" fill="none" xmlns="http://www.w3.org/2000/svg">
<g clip-path="url(#clip0_2682_148)">
<mask id="mask0_2682_148" style="mask-type:luminance" maskUnits="userSpaceOnUse" x="0" y="0" width="1000" height="134">
<path d="M1000 0H0V133.765H1000V0Z" fill="white"/>
</mask>
<g mask="url(#mask0_2682_148)">
<path d="M576.282 33.3285C584.7 29.9215 592.084 25.7735 600.06 23.9965C612.466 21.1815 621.622 27.8475 622.804 40.5875C623.838 51.8455 623.247 63.2515 623.394 74.6575C623.394 78.0655 623.394 81.4725 623.394 85.4715C627.825 85.7675 631.813 85.9165 635.948 86.2125C635.948 90.3605 635.948 93.9155 635.948 98.8035C631.517 98.8035 626.939 98.8035 622.361 98.8035C617.93 98.8035 613.647 98.8035 608.626 98.8035C608.626 81.9165 608.773 65.7695 608.626 49.4755C608.478 37.7725 603.161 34.0695 592.084 37.9205C580.565 41.9205 578.497 44.8835 578.497 56.8815C578.497 66.2145 578.497 75.5465 578.497 85.3235C582.632 85.4715 586.472 85.7675 590.755 85.9165C590.755 90.0635 590.755 93.9155 590.755 98.2115C582.189 98.2115 573.476 98.2115 564.171 98.2115C564.171 83.1015 564.171 68.1405 564.171 53.1785C564.171 49.7715 563.876 46.2165 563.137 42.9575C562.694 41.0315 561.218 38.6615 559.593 37.7725C552.947 34.2175 547.187 37.9205 541.575 40.8835C537.44 43.1055 533.009 44.8835 533.452 51.5495C534.191 62.5105 533.6 73.6215 533.6 85.3235C537.883 85.4715 542.018 85.7675 546.301 85.9165C546.301 90.0635 546.301 93.9155 546.301 98.2115C533.157 98.2115 519.865 98.2115 506.277 98.2115C506.277 94.5075 506.277 90.6565 506.277 86.0645C509.97 85.7675 514.105 85.6195 518.536 85.3235C518.536 69.6215 518.536 54.0675 518.536 37.7725C514.991 37.6245 511.446 37.4765 507.311 37.1805C507.311 33.0325 507.311 29.0325 507.311 24.7365C515.877 24.7365 524.295 24.7365 533.304 24.7365C533.452 27.4035 533.6 29.9215 533.6 31.6995C541.28 28.8845 548.812 25.1815 556.639 23.5515C565.796 21.9225 572.737 26.2185 576.282 33.3285Z" fill="#19110D"/>
<path d="M385.468 33.1814C385.615 30.3664 385.911 27.8484 386.058 25.0344C395.067 25.0344 403.929 25.0344 413.085 25.0344C413.085 29.0334 413.085 32.8855 413.085 37.4775C409.245 37.4775 405.11 37.4775 400.236 37.4775C400.236 46.6615 400.384 54.9574 400.236 63.2524C400.089 77.6214 399.941 91.8424 399.35 106.211C398.907 115.543 393.59 122.209 385.911 127.098C369.812 137.171 348.693 136.134 331.709 123.987C334.81 120.58 337.764 117.173 340.866 113.618C352.385 121.321 364.053 124.135 376.458 116.877C384.581 112.136 386.354 106.359 385.32 90.0644C375.425 98.3604 364.643 103.841 352.09 100.137C345.148 98.0644 337.764 94.3604 332.743 89.1764C319.894 76.1404 319.598 52.4384 330.675 38.0694C343.672 21.4784 358.588 19.9974 385.468 33.1814ZM338.503 62.6604C338.503 77.3254 348.102 87.9905 361.542 87.9905C375.425 88.1395 386.058 76.7324 386.058 62.0674C385.911 47.8464 375.868 37.3294 362.428 37.1814C348.398 37.1814 338.503 47.8464 338.503 62.6604Z" fill="#EF5523"/>
<path d="M752.031 85.9189C756.61 85.9189 760.302 85.9189 764.437 85.9189C764.437 90.2139 764.437 94.0658 764.437 98.3618C751.441 98.3618 738.296 98.3618 724.709 98.3618C724.709 94.3618 724.709 90.5108 724.709 86.0668C728.844 86.0668 732.832 86.0668 737.115 86.0668C737.115 69.6238 737.115 53.9218 737.115 37.7748C732.98 37.7748 729.14 37.7748 724.857 37.7748C724.857 33.4788 724.857 29.6278 724.857 25.3318C733.57 25.3318 742.579 25.3318 751.884 25.3318C752.031 27.7018 752.179 30.2198 752.327 32.1458C759.268 29.4798 766.21 25.9238 773.446 24.2948C786.886 21.3318 796.19 28.8868 796.633 42.6638C797.076 56.7358 796.781 70.8088 796.781 85.4738C801.212 85.7698 805.199 86.2148 809.482 86.5108C809.482 90.5108 809.482 94.2138 809.482 98.3618C800.916 98.3618 792.203 98.3618 782.603 98.3618C782.603 88.5848 782.603 78.5118 782.603 68.4388C782.603 63.2538 782.751 58.0688 782.603 52.8848C782.308 46.9588 784.08 39.9968 776.105 37.3308C770.936 35.7008 755.281 41.6268 752.77 46.2188C752.327 46.9588 752.327 48.1438 752.327 49.0328C752.031 60.8838 752.031 73.0309 752.031 85.9189Z" fill="#19110D"/>
<path d="M496.824 65.327C475.557 65.327 455.471 65.327 435.385 65.327C434.647 74.067 439.964 82.3619 448.087 86.0659C459.606 91.3989 472.012 87.9909 483.68 76.2889C487.372 77.9179 491.359 79.6959 495.347 81.4739C487.076 97.0279 465.366 104.731 446.167 99.2499C426.967 93.7689 416.777 78.6589 418.106 57.7719C419.287 40.5889 433.318 25.4789 450.154 22.9609C468.763 20.2939 486.781 30.367 492.836 47.255C494.756 52.884 495.347 58.809 496.824 65.327ZM434.942 54.3649C450.45 54.3649 465.218 54.3649 480.135 54.3649C478.215 42.5139 468.763 34.663 457.096 34.515C445.428 34.515 437.453 41.6259 434.942 54.3649Z" fill="#EF5523"/>
<path d="M259.49 85.6208C263.921 85.6208 267.465 85.6208 271.748 85.6208C271.748 89.9168 271.748 93.7689 271.748 98.2129C259.047 98.2129 245.903 98.2129 232.463 98.2129C232.463 94.2129 232.463 90.3619 232.463 86.2139C236.598 85.9179 240.438 85.7689 244.721 85.4729C244.721 69.7709 244.721 54.3649 244.721 38.2189C240.733 38.0699 236.746 37.7738 232.463 37.6258C232.463 33.3298 232.463 29.4789 232.463 25.3309C241.472 25.3309 250.186 25.3309 259.342 25.3309C259.49 27.8489 259.638 30.2189 259.785 32.5889C266.284 29.9229 272.487 26.3678 279.133 24.7378C294.049 21.0348 303.797 28.5898 304.387 43.9958C304.83 56.5868 304.535 69.1779 304.683 81.7699C304.683 82.9549 304.83 84.1398 304.978 85.7688C308.818 86.0658 312.362 86.2139 316.498 86.5099C316.498 90.6579 316.498 94.3608 316.498 98.6568C308.08 98.6568 299.514 98.6568 290.061 98.6568C290.061 88.5838 290.061 78.6589 290.061 68.5859C290.061 63.6979 290.209 58.6609 290.061 53.7729C289.766 47.6989 291.834 40.2919 283.563 37.4779C278.394 35.6999 263.034 41.7738 260.376 46.5138C259.933 47.2548 259.638 48.2918 259.638 49.3288C259.49 60.8828 259.49 73.0298 259.49 85.6208Z" fill="#EF5523"/>
<path d="M77.537 62.2161C77.389 84.2881 60.6999 101.027 38.8419 101.027C16.393 101.175 -0.295445 83.9921 -4.54064e-05 60.8831C0.294955 38.5151 16.689 22.6641 38.99 22.6641C61.586 22.8131 77.684 39.4041 77.537 62.2161ZM15.212 61.6241C15.212 75.9931 25.107 86.6581 38.694 86.6581C52.134 86.6581 62.325 75.993 62.325 61.772C62.325 47.699 51.9859 36.5891 38.8419 36.5891C25.5499 36.4411 15.212 47.4031 15.212 61.6241Z" fill="#EF5523"/>
<path d="M153.152 40.8853C154.334 36.5893 159.946 30.3673 164.377 27.8493C176.635 20.7393 189.779 20.5913 202.628 26.2203C210.16 29.4793 213.262 36.1453 213.262 44.1443C213.409 57.6243 213.262 71.1043 213.262 85.0293C217.84 85.3253 221.532 85.7693 225.667 86.0663C225.667 90.0653 225.667 93.6213 225.667 97.9163C217.692 97.9163 209.569 97.9163 200.856 97.9163C200.708 95.8433 200.56 93.4723 200.265 90.2133C192.29 96.8803 183.576 101.324 173.681 99.3983C168.66 98.3613 163.343 95.8433 159.355 92.5843C151.675 86.5103 149.46 74.5113 154.481 66.3643C165.41 48.7363 181.213 50.3653 198.197 57.0323C197.754 49.3293 201.151 41.4773 192.437 36.7373C185.053 32.7383 177.078 34.9603 168.069 40.8853M185.791 64.5863C182.542 63.2533 178.85 63.1053 175.601 64.2903C169.546 66.3643 165.853 70.8083 166.001 76.7333C166.149 84.7333 172.499 89.9173 182.099 88.2883C187.121 87.3993 192.29 84.8813 196.573 81.9183C201.299 78.8073 200.856 71.8453 195.982 69.0303C192.733 67.2533 189.188 65.9203 185.791 64.5863Z" fill="#EF5523"/>
<path d="M644.808 40.7372C645.99 36.4412 651.602 30.2192 656.033 27.7012C668.291 20.5912 681.435 20.4423 694.284 26.0723C701.816 29.3303 704.918 35.9972 704.918 43.9962C705.065 57.4762 704.918 70.9562 704.918 84.8812C709.496 85.1772 713.188 85.6213 717.324 85.9183C717.324 89.9173 717.324 93.4722 717.324 97.7682C709.348 97.7682 701.226 97.7682 692.512 97.7682C692.364 95.6942 692.217 93.3242 691.921 90.0652C683.946 96.7312 675.232 101.175 665.337 99.2502C660.316 98.2132 654.999 95.6942 651.011 92.4352C643.332 86.3622 641.116 74.3632 646.138 66.2162C657.067 48.5882 672.869 50.2172 689.854 56.8832C689.41 49.1802 692.807 41.3292 684.094 36.5892C676.709 32.5892 668.734 34.8112 659.725 40.7372M677.448 64.2902C674.199 62.9572 670.506 62.8093 667.257 63.9943C661.202 66.0683 657.51 70.5123 657.657 76.4373C657.805 84.4363 664.156 89.6213 673.755 87.9913C678.777 87.1033 683.946 84.5843 688.229 81.6223C692.955 78.5113 692.512 71.5493 687.638 68.7343C684.389 66.9563 680.845 65.6232 677.448 64.2902Z" fill="#19110D"/>
<path d="M860.877 85.7702C865.751 85.7702 870.329 85.7702 875.203 85.7702C875.203 69.6242 875.203 54.0702 875.203 38.0712C870.772 38.0712 866.194 38.0712 861.025 38.0712C861.025 33.4792 861.025 29.4802 861.025 25.0362C869.591 25.0362 878.156 25.0362 886.87 25.0362C886.87 29.7762 886.87 34.0722 886.87 38.3682C894.255 25.1842 905.92 22.5172 919.8 23.7022C919.8 28.2952 919.8 32.5903 919.8 37.4793C915.23 37.9233 910.5 38.3682 905.77 39.1082C897.208 40.4422 892.187 44.8862 891.301 53.3292C890.119 63.8472 889.972 74.3643 889.381 85.4743C895.288 85.4743 900.16 85.4743 905.48 85.4743C905.48 90.0663 905.48 93.9183 905.48 98.3623C890.71 98.3623 876.089 98.3623 860.877 98.3623C860.877 94.5103 860.877 90.8072 860.877 85.7702Z" fill="#19110D"/>
<path d="M117.118 85.9182C122.139 85.9182 127.013 85.9182 132.182 85.9182C132.182 90.3622 132.182 94.2132 132.182 98.3612C117.266 98.3612 102.644 98.3612 87.5801 98.3612C87.5801 94.2132 87.5801 90.3622 87.5801 86.0662C92.3061 85.7692 96.8841 85.6212 101.758 85.3252C101.758 69.3272 101.758 53.9212 101.758 38.0702C97.0321 37.7742 92.4541 37.6262 87.5801 37.3302C87.5801 33.1822 87.5801 29.3302 87.5801 25.0352C95.9981 25.0352 104.269 25.0352 113.13 25.0352C113.13 29.4792 113.13 34.0712 113.13 38.5152C120.662 25.3312 132.33 22.3682 146.212 23.7012C146.212 28.4422 146.212 32.7382 146.212 37.6262C142.225 38.0702 138.09 38.3672 134.102 38.9592C122.878 40.5892 118.004 45.4772 117.266 56.7352C116.675 66.0682 117.118 75.4002 117.118 85.9182Z" fill="#EF5523"/>
<path d="M824.398 37.922C820.854 37.774 818.195 37.626 815.094 37.478C815.094 33.478 815.094 29.627 815.094 25.183C817.752 24.886 820.854 24.59 824.694 24.294C821.001 11.554 831.34 7.407 838.724 0C838.724 8.74 838.724 16.147 838.724 24.442C843.45 24.442 847.733 24.442 852.164 24.442C852.164 29.034 852.164 32.886 852.164 37.33C847.881 37.33 843.893 37.33 839.167 37.33C839.167 52.588 838.429 67.253 839.462 81.918C840.053 89.621 846.994 85.177 851.868 85.325C851.868 89.325 851.868 93.176 851.868 97.324C835.918 104.582 824.693 97.916 824.25 80.437C824.103 73.326 824.25 66.068 824.103 58.957C824.398 52.291 824.398 45.329 824.398 37.922Z" fill="#19110D"/>
<path d="M927.48 41.1822C928.67 36.8862 934.28 30.6652 938.71 28.1462C950.97 21.0362 964.11 20.8882 976.96 26.5172C984.49 29.7762 987.59 36.4422 987.59 44.4412C987.74 57.9212 987.59 71.4012 987.59 85.3262C992.17 85.6222 995.86 86.0672 1000 86.3632C1000 90.3632 1000 93.9182 1000 98.2142C992.02 98.2142 983.9 98.2142 975.19 98.2142C975.04 96.1402 974.89 93.7702 974.6 90.5112C966.62 97.1772 957.91 101.621 948.01 99.6951C942.99 98.6581 937.67 96.1402 933.69 92.8812C926.01 86.8072 923.79 74.8091 928.81 66.6611C939.74 49.0331 955.55 50.6632 972.53 57.3292C972.09 49.6262 975.48 41.7752 966.77 37.0342C959.38 33.0352 951.41 35.2572 942.4 41.1822M960.12 64.8842C956.87 63.5502 953.18 63.4022 949.93 64.5872C943.88 66.6612 940.19 71.1052 940.33 77.0312C940.48 85.0302 946.83 90.2141 956.43 88.5851C961.45 87.6961 966.62 85.1781 970.9 82.2151C975.63 79.1041 975.19 72.1422 970.31 69.3282C967.06 67.5502 963.52 66.2172 960.12 64.8842Z" fill="#19110D"/>
</g>
</g>
<defs>
<clipPath id="clip0_2682_148">
<rect width="1000" height="134" fill="white"/>
</clipPath>
</defs>
</svg>
